<svg id="Capa_1" enable-background="new 0 0 512 512" height="512" viewBox="0 0 512 512" width="512" xmlns="http://www.w3.org/2000/svg"><g><g><path d="m0 72.147v76.311l256 35.587 33.755-74.467-33.755-37.431z" fill="#bee569"/><path d="m256 72.147v111.898l6.012.836 249.988-36.423v-76.311z" fill="#22d683"/></g><g><path d="m0 148.458v291.395h256l28.471-146.642-28.471-144.753z" fill="#edf6ff"/><path d="m256 148.458h256v291.395h-256z" fill="#d7e9fe"/></g><g><g><g><g><path d="m372.649 324.658h30v49.65h-30z" fill="#676e74"/></g><g fill="#d7e9fe"><path d="m38.896 346.483h177.173v30h-177.173z"/><path d="m176.016 286.479h40.054v30h-40.054z"/><path d="m176.016 226.476h40.054v30h-40.054z"/></g></g><path d="m79.316 295.822h34.861l6.885 18.243 26.197-9.886-38.979-103.288-22.78.025-39.308 103.209 26.167 9.966zm24.295-28h-13.631l6.846-17.977z" fill="#bee569"/></g><g><g><path d="m416.599 227.051h-57.873c-12.771 15.872-19.796 35.696-19.796 56.111v56.495h97.465v-56.495c0-20.414-7.025-40.238-19.796-56.111z" fill="#22d683"/></g><g><path d="m322.231 201.064h129.872v30h-129.872z" fill="#676e74"/></g></g></g><circle cx="387.106" cy="231.21" fill="#fc6" r="19.11"/></g></svg>